<?xml version="1.0" encoding="UTF-8"?>
<svg id="o" width="105.24pt" height="62.762pt" version="1.1" viewBox="0 0 105.24 62.762" xmlns="http://www.w3.org/2000/svg" xmlns:cc="http://creativecommons.org/ns#" xmlns:dc="http://purl.org/dc/elements/1.1/" xmlns:rdf="http://www.w3.org/1999/02/22-rdf-syntax-ns#" xmlns:xlink="http://www.w3.org/1999/xlink">
 <metadata id="p">
  <rdf:RDF>
   <cc:Work rdf:about="">
    <dc:format>image/svg+xml</dc:format>
    <dc:type rdf:resource="http://purl.org/dc/dcmitype/StillImage"/>
    <dc:title/>
   </cc:Work>
  </rdf:RDF>
 </metadata>
 <defs id="q">
  <g id="r">
   <symbol id="n" overflow="visible">
    <path id="s" d="m3.9688-5.25v3.6875c0 0.70312-0.5 1.1406-1.3438 1.1406-0.39062 0-0.70312-0.09375-0.96875-0.28125-0.25-0.20312-0.375-0.46875-0.375-0.85938v-3.6875h-0.67188v3.6875c0 1.0625 0.76562 1.7344 2.0156 1.7344 1.2344 0 2.0156-0.6875 2.0156-1.7344v-3.6875z"/>
   </symbol>
   <symbol id="m" overflow="visible">
    <path id="t" d="m3.9688-2.3906v2.3906h0.67188v-5.25h-0.67188v2.2656h-2.7031v-2.2656h-0.67188v5.25h0.6875v-2.3906z"/>
   </symbol>
   <symbol id="l" overflow="visible">
    <path id="u" d="m2.8281 0 1.8125-5.25h-0.70312l-1.4531 4.4375-1.5469-4.4375h-0.71875l1.8906 5.25z"/>
   </symbol>
   <symbol id="k" overflow="visible">
    <path id="v" d="m1.3906-5.25h-0.67188v5.25h0.67188z"/>
   </symbol>
   <symbol id="j" overflow="visible">
    <path id="w" d="m1.75-1.625 1.0625-1.5156h-0.5625l-0.76562 1.1406-0.75-1.1406h-0.57812l1.0625 1.5312-1.1094 1.6094h0.5625l0.79688-1.2031 0.78125 1.2031h0.59375z"/>
   </symbol>
   <symbol id="h" overflow="visible">
    <path id="x" d="m1.1406-0.625h-0.625v0.625h0.625z"/>
   </symbol>
   <symbol id="g" overflow="visible">
    <path id="y" d="m3.0312-0.51562h-2.2344c0.0625-0.35938 0.25-0.57812 0.76562-0.875l0.60938-0.32812c0.59375-0.32812 0.89062-0.76562 0.89062-1.2812 0-0.35938-0.14062-0.6875-0.39062-0.92188-0.25-0.21875-0.5625-0.32812-0.96875-0.32812-0.54688 0-0.9375 0.1875-1.1719 0.54688-0.15625 0.23438-0.21875 0.5-0.23438 0.92188h0.53125c0.015625-0.28125 0.046875-0.45312 0.125-0.59375 0.14062-0.26562 0.42188-0.42188 0.73438-0.42188 0.48438 0 0.84375 0.34375 0.84375 0.79688 0 0.34375-0.20312 0.625-0.57812 0.84375l-0.5625 0.3125c-0.875 0.5-1.1406 0.90625-1.1875 1.8438h2.8281z"/>
   </symbol>
   <symbol id="f" overflow="visible">
    <path id="z" d="m2.8281-2.0938c-0.03125-0.29688-0.09375-0.5-0.21875-0.67188-0.20312-0.29688-0.59375-0.46875-1.0312-0.46875-0.84375 0-1.3906 0.67188-1.3906 1.7188 0 1.0156 0.53125 1.6562 1.3906 1.6562 0.75 0 1.2188-0.45312 1.2812-1.2188h-0.5c-0.078125 0.5-0.34375 0.75-0.76562 0.75-0.5625 0-0.89062-0.45312-0.89062-1.1875 0-0.78125 0.32812-1.25 0.875-1.25 0.42188 0 0.6875 0.23438 0.75 0.67188z"/>
   </symbol>
   <symbol id="e" overflow="visible">
    <path id="aa" d="m2.9688-4.375h-0.5v1.625c-0.20312-0.3125-0.54688-0.48438-0.96875-0.48438-0.8125 0-1.3438 0.65625-1.3438 1.6562 0 1.0625 0.51562 1.7188 1.375 1.7188 0.42188 0 0.71875-0.17188 1-0.54688v0.40625h0.4375zm-1.375 1.6094c0.53125 0 0.875 0.48438 0.875 1.2344 0 0.71875-0.34375 1.2031-0.875 1.2031-0.54688 0-0.92188-0.48438-0.92188-1.2188s0.375-1.2188 0.92188-1.2188z"/>
   </symbol>
   <symbol id="d" overflow="visible">
    <path id="ab" d="m0.90625-3.1406h-0.5v3.1406h0.5zm0-1.2344h-0.51562v0.625h0.51562z"/>
   </symbol>
   <symbol id="a" overflow="visible">
    <path id="ac" d="m1.5469-3.1406h-0.51562v-0.5c0-0.20312 0.10938-0.3125 0.34375-0.3125h0.17188v-0.40625c-0.10938-0.03125-0.17188-0.03125-0.28125-0.03125-0.46875 0-0.73438 0.26562-0.73438 0.71875v0.53125h-0.42188v0.40625h0.42188v2.7344h0.5v-2.7344h0.51562z"/>
   </symbol>
   <symbol id="c" overflow="visible">
    <path id="ad" d="m1.5312-3.1406h-0.51562v-0.875h-0.5v0.875h-0.4375v0.40625h0.4375v2.375c0 0.3125 0.20312 0.5 0.59375 0.5 0.125 0 0.25-0.015625 0.42188-0.046875v-0.42188c-0.078125 0.015625-0.15625 0.03125-0.25 0.03125-0.21875 0-0.26562-0.0625-0.26562-0.28125v-2.1562h0.51562z"/>
   </symbol>
   <symbol id="b" overflow="visible">
    <path id="ae" d="m3.2031-0.29688c-0.046875 0.015625-0.078125 0.015625-0.09375 0.015625-0.1875 0-0.28125-0.09375-0.28125-0.25v-1.8438c0-0.5625-0.40625-0.85938-1.1719-0.85938-0.46875 0-0.84375 0.125-1.0469 0.35938-0.14062 0.17188-0.20312 0.34375-0.21875 0.65625h0.5c0.046875-0.375 0.26562-0.54688 0.73438-0.54688 0.45312 0 0.70312 0.15625 0.70312 0.46875v0.125c0 0.20312-0.125 0.29688-0.51562 0.34375-0.70312 0.09375-0.8125 0.125-1.0156 0.20312-0.35938 0.14062-0.54688 0.42188-0.54688 0.82812 0 0.57812 0.39062 0.9375 1.0312 0.9375 0.40625 0 0.71875-0.14062 1.0781-0.46875 0.03125 0.32812 0.1875 0.46875 0.51562 0.46875 0.09375 0 0.17188-0.015625 0.32812-0.0625zm-0.875-0.6875c0 0.15625-0.046875 0.26562-0.1875 0.40625-0.20312 0.1875-0.45312 0.28125-0.75 0.28125-0.39062 0-0.60938-0.1875-0.60938-0.5 0-0.34375 0.21875-0.5 0.75-0.57812s0.64062-0.09375 0.79688-0.17188z"/>
   </symbol>
   <symbol id="i" overflow="visible">
    <path id="af" d="m0.32812 1.3125h0.5v-1.6406c0.26562 0.32812 0.5625 0.46875 0.96875 0.46875 0.8125 0 1.3438-0.65625 1.3438-1.6562 0-1.0625-0.51562-1.7188-1.3594-1.7188-0.42188 0-0.76562 0.1875-1 0.5625v-0.46875h-0.45312zm1.375-4.0781c0.54688 0 0.90625 0.48438 0.90625 1.2344 0 0.71875-0.35938 1.2031-0.90625 1.2031-0.53125 0-0.875-0.48438-0.875-1.2188s0.34375-1.2188 0.875-1.2188z"/>
   </symbol>
  </g>
 </defs>
 <g id="ag" transform="translate(-572.55 -218.93)">
  <path id="ah" d="m572.79 219.18v62.16h104.64v-62.16z" fill="#fff" fill-rule="evenodd"/>
  <path id="ai" d="m572.55 218.93h105.24v62.762h-105.24zm0.59765 62.402-0.35937-0.24219h104.64l-0.24219 0.24219v-62.16l0.24219 0.35938h-104.64l0.35937-0.35938" fill="#f0f"/>
  <path id="aj" d="m595.11 234.54h8.2812l5.2774 7.5586v28.441l-5.0391 7.5586h-8.5195l-5.3984-8.039v-28.801l5.3984-6.7188" fill="#fc0" fill-rule="evenodd"/>
  <path id="ak" d="m594.87 234.41c0.1211-0.12109 0.1211-0.12109 0.24219-0.12109h8.2812s0.11719 0 0.11719 0.12109l5.4023 7.5625v0.11719 28.441 0.12109l-5.043 7.5586c0 0.12109-0.11718 0.12109-0.23828 0.12109h-8.5195c-0.12109 0-0.12109 0-0.24219-0.12109l-5.2773-8.0391v-0.12108-28.801-0.1211zm-4.918 7.082v-0.24219 28.801-0.12109l5.2812 8.043-0.1211-0.12109h8.5195l-0.12109 0.12109 5.043-7.5625-0.1211 0.1211v-28.441l0.1211 0.24219-5.4024-7.6797 0.24219 0.11719h-8.2812l0.1211-0.11719"/>
  <path id="al" d="m630.51 235.02h8.2812l5.2812 7.5586v28.441l-5.043 7.5586h-8.5195l-5.3984-8.0391v-28.801l5.3984-6.7188" fill="#0f0" fill-rule="evenodd"/>
  <path id="am" d="m630.27 234.89c0.12109-0.12109 0.12109-0.12109 0.23828-0.12109h8.2812s0.12109 0 0.12109 0.12109l5.3984 7.5586v0.12109 28.441 0.11718l-5.0391 7.5625c-0.1211 0.1211-0.1211 0.1211-0.24219 0.1211h-8.5195c-0.11719 0-0.11719 0-0.23828-0.1211l-5.2812-8.039-0.1211-0.12109v-28.801l0.1211-0.1211zm-4.9219 6.9609v-0.12109 28.801-0.1211l5.2812 8.0391-0.12109-0.1172h8.5195l-0.11719 0.1172 5.0391-7.5586-0.1211 0.1211v-28.441l0.1211 0.12109-5.3984-7.5625 0.23828 0.1211h-8.2812l0.12109-0.1211"/>
  <g id="an" transform="translate(77.79 33.055)" fill="#f0f">
   <use id="ao" x="574.07977" y="242.7599" width="100%" height="100%" xlink:href="#n"/>
  </g>
  <g id="ap" transform="translate(77.79 33.055)" fill="#f0f">
   <use id="aq" x="579.23981" y="242.7599" width="100%" height="100%" xlink:href="#m"/>
  </g>
  <g id="ar" transform="translate(77.79 33.055)" fill="#f0f">
   <use id="as" x="584.39978" y="242.7599" width="100%" height="100%" xlink:href="#l"/>
  </g>
  <g id="at" transform="translate(77.79 33.055)" fill="#f0f">
   <use id="au" x="589.19983" y="242.7599" width="100%" height="100%" xlink:href="#k"/>
  </g>
  <g id="av" transform="translate(77.79 33.055)">
   <use id="aw" x="534.3598" y="195.23993" width="100%" height="100%" xlink:href="#j"/>
  </g>
  <g id="ax" transform="translate(77.79 33.055)">
   <use id="ay" x="537.23981" y="195.23993" width="100%" height="100%" xlink:href="#h"/>
  </g>
  <g id="az" transform="translate(77.79 33.055)">
   <use id="ba" x="538.9198" y="195.23993" width="100%" height="100%" xlink:href="#g"/>
  </g>
  <g id="bb" transform="translate(77.79 33.055)">
   <use id="bc" x="542.27985" y="195.23993" width="100%" height="100%" xlink:href="#f"/>
  </g>
  <path id="bd" d="m614.07 229.73-5.5195 5.7617 0.35937 0.23828 5.3984-5.6406zm-6.2422 4.1992-1.0781 3.8398 3.7188-1.3203"/>
  <path id="be" d="m618.27 231.06 7.0781 4.8008-0.35937 0.35938-6.9609-4.8008zm7.4414 3.2383 1.918 3.4805-3.9609-0.59766"/>
  <g id="bf" transform="translate(77.79 33.055)">
   <use id="bg" x="552.23981" y="236.5199" width="100%" height="100%" xlink:href="#e"/>
  </g>
  <g id="bh" transform="translate(77.79 33.055)">
   <use id="bi" x="555.59979" y="236.5199" width="100%" height="100%" xlink:href="#d"/>
  </g>
  <g id="bj" transform="translate(77.79 33.055)">
   <use id="bk" x="557.03979" y="236.5199" width="100%" height="100%" xlink:href="#a"/>
  </g>
  <g id="bl" transform="translate(77.79 33.055)">
   <use id="bm" x="558.71979" y="236.5199" width="100%" height="100%" xlink:href="#a"/>
  </g>
  <g id="bn" transform="translate(77.79 33.055)">
   <use id="bo" x="516.3598" y="236.5199" width="100%" height="100%" xlink:href="#c"/>
  </g>
  <g id="bp" transform="translate(77.79 33.055)">
   <use id="bq" x="518.03979" y="236.5199" width="100%" height="100%" xlink:href="#b"/>
  </g>
  <g id="br" transform="translate(77.79 33.055)">
   <use id="bs" x="521.39984" y="236.5199" width="100%" height="100%" xlink:href="#i"/>
  </g>
 </g>
</svg>
