<svg xmlns="http://www.w3.org/2000/svg" xmlns:xlink="http://www.w3.org/1999/xlink" xmlns:s="https://github.com/nturley/netlistsvg" width="255" height="129">
  <style>svg {
    stroke:#000;
    fill:none;
  }
  text {
    fill:#000;
    stroke:none;
    font-size:10px;
    font-weight: bold;
    font-family: "Courier New", monospace;
  }
  .nodelabel {
    text-anchor: middle;
  }
  .inputPortLabel {
    text-anchor: end;
  }
  .splitjoinBody {
    fill:#000;
  }</style>
  <g s:type="reduce_xor" transform="translate(77,27)" s:width="33" s:height="25" id="cell_$xor$../skywater-pdk-scratch-new/skywater-pdk/libraries/sky130_fd_sc_ms/v0.0.1/cells/xor3/sky130_fd_sc_ms__xor3.functional.v:52$1">
    <s:alias val="$xor"/>
    <s:alias val="$reduce_xor"/>
    <s:alias val="$_XOR_"/>
    <path d="M3,0 A30 25 0 0 1 3,25 A30 25 0 0 0 33,12.5 A30 25 0 0 0 3,0" class="cell_$xor$../skywater-pdk-scratch-new/skywater-pdk/libraries/sky130_fd_sc_ms/v0.0.1/cells/xor3/sky130_fd_sc_ms__xor3.functional.v:52$1"/>
    <path d="M0,0 A30 25 0 0 1 0,25" class="cell_$xor$../skywater-pdk-scratch-new/skywater-pdk/libraries/sky130_fd_sc_ms/v0.0.1/cells/xor3/sky130_fd_sc_ms__xor3.functional.v:52$1"/>
    <g s:x="3" s:y="5" s:pid="A"/>
    <g s:x="3" s:y="20" s:pid="B"/>
    <g s:x="33" s:y="12.5" s:pid="Y"/>
  </g>
  <g s:type="reduce_xor" transform="translate(145,34.5)" s:width="33" s:height="25" id="cell_$xor$../skywater-pdk-scratch-new/skywater-pdk/libraries/sky130_fd_sc_ms/v0.0.1/cells/xor3/sky130_fd_sc_ms__xor3.functional.v:52$2">
    <s:alias val="$xor"/>
    <s:alias val="$reduce_xor"/>
    <s:alias val="$_XOR_"/>
    <path d="M3,0 A30 25 0 0 1 3,25 A30 25 0 0 0 33,12.5 A30 25 0 0 0 3,0" class="cell_$xor$../skywater-pdk-scratch-new/skywater-pdk/libraries/sky130_fd_sc_ms/v0.0.1/cells/xor3/sky130_fd_sc_ms__xor3.functional.v:52$2"/>
    <path d="M0,0 A30 25 0 0 1 0,25" class="cell_$xor$../skywater-pdk-scratch-new/skywater-pdk/libraries/sky130_fd_sc_ms/v0.0.1/cells/xor3/sky130_fd_sc_ms__xor3.functional.v:52$2"/>
    <g s:x="3" s:y="5" s:pid="A"/>
    <g s:x="3" s:y="20" s:pid="B"/>
    <g s:x="33" s:y="12.5" s:pid="Y"/>
  </g>
  <g s:type="outputExt" transform="translate(213,37)" s:width="30" s:height="20" id="cell_X">
    <text x="15" y="-4" class="nodelabel cell_X" s:attribute="ref">X</text>
    <s:alias val="$_outputExt_"/>
    <path d="M30,0 L30,20 L15,20 L0,10 L15,0 Z" class="cell_X"/>
    <g s:x="0" s:y="10" s:pid="A"/>
  </g>
  <g s:type="inputExt" transform="translate(12,22)" s:width="30" s:height="20" id="cell_A">
    <text x="15" y="-4" class="nodelabel cell_A" s:attribute="ref">A</text>
    <s:alias val="$_inputExt_"/>
    <path d="M0,0 L0,20 L15,20 L30,10 L15,0 Z" class="cell_A"/>
    <g s:x="28" s:y="10" s:pid="Y"/>
  </g>
  <g s:type="inputExt" transform="translate(12,87)" s:width="30" s:height="20" id="cell_B">
    <text x="15" y="-4" class="nodelabel cell_B" s:attribute="ref">B</text>
    <s:alias val="$_inputExt_"/>
    <path d="M0,0 L0,20 L15,20 L30,10 L15,0 Z" class="cell_B"/>
    <g s:x="28" s:y="10" s:pid="Y"/>
  </g>
  <g s:type="inputExt" transform="translate(80,97)" s:width="30" s:height="20" id="cell_C">
    <text x="15" y="-4" class="nodelabel cell_C" s:attribute="ref">C</text>
    <s:alias val="$_inputExt_"/>
    <path d="M0,0 L0,20 L15,20 L30,10 L15,0 Z" class="cell_C"/>
    <g s:x="28" s:y="10" s:pid="Y"/>
  </g>
  <line x1="40" x2="80" y1="32" y2="32" class="net_3"/>
  <line x1="40" x2="52" y1="97" y2="97" class="net_4"/>
  <line x1="52" x2="52" y1="97" y2="47" class="net_4"/>
  <line x1="52" x2="80" y1="47" y2="47" class="net_4"/>
  <line x1="110" x2="148" y1="39.5" y2="39.5" class="net_6"/>
  <line x1="108" x2="120" y1="107" y2="107" class="net_5"/>
  <line x1="120" x2="120" y1="107" y2="54.5" class="net_5"/>
  <line x1="120" x2="148" y1="54.5" y2="54.5" class="net_5"/>
  <line x1="178" x2="213" y1="47" y2="47" class="net_2"/>
</svg>
