<svg id="Layer_1" data-name="Layer 1" xmlns="http://www.w3.org/2000/svg" viewBox="0 0 552.55 88.14"><defs><style>.cls-1{fill:#d3b52a;}.cls-2{fill:#194471;}</style></defs><title>logo</title><path class="cls-1" d="M171.29,25.55l-.43-.55-.49-.64a3.63,3.63,0,0,1-1.13-2.82c-.16-4.7-2.62-6.53-4.6-8l-1.14-.87c-1.83-1.46-4.43-3.18-6-4.21-.1-.29-.2-.54-.29-.76l-.12-.33a17.11,17.11,0,0,0-2.9-4.77,10.55,10.55,0,0,0-.72-.78L151.67,0l-2.45.7-1.12.35-.18.07-.17.08-.47.22-.09,0-.3.16c-.23.12-.54.27-.87.48l-.52.31-.5.35a9.18,9.18,0,0,0-.87.66l-.28.22-.2.18c-.22.21-.49.46-.76.76a3.88,3.88,0,0,0-.39.42L142,4.92a34.81,34.81,0,0,0-5.23-.33c-6.7,0-15.82,1.14-23.14,2.05-3.79.47-7.08.88-8.78,1-7,.35-13.73,1.61-24.15,6.62-9.4,4.52-11,4.64-21.4,5.46-2.64.21-6.81.32-11.77.32-1.26,0-2.54,0-3.85,0h0L25.83,34.33a2.39,2.39,0,1,0-.46,1.49H40l16.88-13.6.65-.52.73,0,1.27-.05,1.32-.08,2.66-.15,1.28-.08,1.33-.11c.91-.06,1.68-.18,2.53-.28a29.27,29.27,0,0,0,4.87-1.09c1.61-.48,3.21-1.12,4.82-1.78s3.22-1.41,4.85-2.11,3.35-1.41,5-2a52.49,52.49,0,0,1,10.58-2.7,49.92,49.92,0,0,1,5.43-.46c.92,0,1.74,0,2.62-.12l2.63-.22,10.6-1c3.54-.32,7.09-.61,10.64-.77,1.78-.08,3.57-.13,5.35-.11a34.22,34.22,0,0,1,5.34.42l.2,0,0,.2c-.05.32-.12.63-.15,1,0,.17,0,.31,0,.48l0,.49a12.47,12.47,0,0,0,.18,1.92c.07.31.13.64.23,1a8.29,8.29,0,0,0,.31.92,7.89,7.89,0,0,0,.39.9c.14.29.31.57.47.86a7.39,7.39,0,0,0,.77,1c0-.42,0-.83-.07-1.22s0-.81,0-1.2a18.6,18.6,0,0,1,.13-2.27c0-.37.09-.73.15-1.07s.16-.69.25-1a9,9,0,0,1,.33-1,7.73,7.73,0,0,1,.41-.87,7.11,7.11,0,0,1,.51-.79,3.58,3.58,0,0,1,.28-.37,2.11,2.11,0,0,1,.31-.36c.21-.23.45-.44.67-.66a9.2,9.2,0,0,1,.77-.59l.4-.28.44-.26c.28-.18.6-.32.9-.49l.34-.16.92-.29c.18.19.35.37.52.57a11.4,11.4,0,0,1,1.21,1.68,12.46,12.46,0,0,1,1,1.93c.13.34.28.71.38,1.07s.21.75.32,1.15c0,0,4.44,2.74,7,4.8s4,2.47,4.14,5.68,1.24,4.23,2.48,5.88,3.41,3.72,1.55,6-4.24,4-4.65,5.37-3.72,2.68-6,2.07-17.45-3.92-19.52-3.83l-8,.41h-.13a9.89,9.89,0,0,1-.06,2.15,18.58,18.58,0,0,1-1,3.8l-.14.33a.31.31,0,0,1-.06.13,19.23,19.23,0,0,1-7.62,8.31,23.93,23.93,0,0,1-2.54,1.11,2.39,2.39,0,1,0-.18,1.19l4,1.67,10.41,3.44h0l.71.29.69.32,1.35.67h0l.06,0,0,0,.12.06.15.09.28.18.57.36.14.09.15.1.26.2.53.4h0v0l.89.79.86.87h0l.43.51L141,65l.11.13.06.08.05.07.4.53.2.26.11.15.09.15,0,0,0,.06a13.2,13.2,0,0,1,.62,2.8,11.71,11.71,0,0,1,.05,1.45,12.1,12.1,0,0,0,0,1.33,2.22,2.22,0,0,0,.35,1l.17.28a3.61,3.61,0,0,1,.2.36,4.1,4.1,0,0,1,.27.79,6.12,6.12,0,0,1-.25,3,10.65,10.65,0,0,1-1.26,2.66,10.92,10.92,0,0,1-1.95,2.26,10.74,10.74,0,0,1-2.52,1.59,6.83,6.83,0,0,1-3.08.63,3.94,3.94,0,0,1-1.7-.46,3.67,3.67,0,0,1-.75-.54c-.25-.24-.38-.4-.54-.58a5.38,5.38,0,0,1-.92-1.41,3.29,3.29,0,0,1-.24-1,3.62,3.62,0,0,1,.08-1,7.11,7.11,0,0,1,.52-1.52c.21-.46.42-.87.61-1.27a11.54,11.54,0,0,0,.84-2.36,3.53,3.53,0,0,0-.11-2.06,2.61,2.61,0,0,0-.24-.43,2.29,2.29,0,0,0-.17-.27l-.21-.35c-.26-.44-.48-.88-.69-1.3A14.08,14.08,0,0,0,129.87,68a1.65,1.65,0,0,0-.55-.52c-.15,0-.06,0-.68,0h-.2l-.44,0h-.54l-1,0-.54,0h-.2l-.27,0-1.06.13c-.7.09-1.36.22-2,.33l-2.1.41c-1.37.28-2.81.57-4.28.79l-.27,0-.16,0h-.14l-.53.07-.31,0-.33,0-.49,0-2.13.17-4.25.37-1.06.1-1,.12-.53.06-.27,0-.33,0c-.35,0-.79.06-1.22.06l-.35,0h-.32l-.62-.07-.37-.07h-.1l-.16,0-.16,0-.56-.17a13.09,13.09,0,0,1-1.24-.51l-1-.54-1-.54-.24-.13-.12-.07-.21-.13-.08,0h0l-.06,0-.23-.14a4.74,4.74,0,0,1-.65-.42l0,0,.07,0h0l0,0-.06,0-.11-.08-.22-.15-.1-.08L95,67l0,0-.18-.16-.21-.16-.41-.34,0,0-.06,0h0a12.46,12.46,0,0,1-2.8-3.25A10.67,10.67,0,0,1,90,58.8a14.26,14.26,0,0,1,.31-4.31,23.3,23.3,0,0,1,1.24-3.84l.09-.23.05-.12.08-.17.19-.42c.13-.27.27-.56.42-.85l.85-1.7,1.67-3.26,1.65-3.25.7-1.39a2.48,2.48,0,0,0,1.18.32,2.44,2.44,0,0,0,2.4-2.4,2.4,2.4,0,1,0-4.8,0A2.38,2.38,0,0,0,96.83,39l-.14.22c-.4.6-.85,1.3-1.33,2.07H4.52a2.41,2.41,0,1,0,0,2.23H94c-.7,1.13-1.45,2.38-2.25,3.72l-.89,1.53H4.52a2.38,2.38,0,0,0-2.12-1.3A2.41,2.41,0,1,0,4.52,51h85l-.15.26a14.34,14.34,0,0,0-.81,1.67A14.48,14.48,0,0,0,88,54.7c-.08.31-.17.63-.22.95a9.5,9.5,0,0,0-.16,1c0,.17,0,.38-.06.53l0,.45a10.59,10.59,0,0,0,0,1.13A10.07,10.07,0,0,0,88,61a14.38,14.38,0,0,0,1.93,3.81c.16.23.33.45.49.67h0l.49.46s-3.62,1.18-11.93,1.77S57.32,68,57.32,68L43.7,57h-18a2.4,2.4,0,1,0,.1,1.43L39.11,69.18c11.11.37,29.07.92,35.35.8a135.53,135.53,0,0,0,18.32-1.76c.45.36,2,1.5,2,1.5l.59.37.67.4A18.4,18.4,0,0,0,100,72.4l.27.08.3.08.67.15h.1a9.6,9.6,0,0,0,1.06.12c.27,0,.55,0,.84,0,.44,0,.89,0,1.35-.06l1.94-.17,1.93-.14c1.15-.09,2.36-.17,3.71-.24L115,72.1c.36,0,.72-.06,1-.1,1.55-.18,3.07-.46,4.53-.73.82-.15,1.63-.3,2.44-.43,1-.15,2-.3,2.89-.36l.76,0h1.2c.14.28.29.59.4.84a20.13,20.13,0,0,0,1.27,2.41,6.73,6.73,0,0,1-.93,2.38c-1.74,3.35-2.2,6.13.9,9.65A7.28,7.28,0,0,0,135,88.14a12.15,12.15,0,0,0,7.49-3c3.44-2.84,6.62-9.07,3.93-13.61a.62.62,0,0,1,0-.13,15.37,15.37,0,0,0-.73-6.07l-.18-.59-.35-.52L145,64l-.84-1.16-.94-1.16-1-1.08-1.11-1-.06-.05-2.86-2-1-.52-.28-.15a10.75,10.75,0,0,0-1-.51L135,56l-7.38-2.62a21.8,21.8,0,0,0,5.76-7.58l.1-.24.14-.33,0-.12a22.49,22.49,0,0,0,1-3.4l4.34-.23c2.16.11,15.64,3,18.27,3.68a9.24,9.24,0,0,0,2.38.3,11.43,11.43,0,0,0,5.17-1.26,7.07,7.07,0,0,0,3.53-3.64c.26-.33.9-1,1.38-1.45a35,35,0,0,0,2.61-2.81c3.81-4.64.18-9.21-1-10.7"/><path class="cls-1" d="M162,21.42a2.4,2.4,0,1,0-2.4,2.4,2.39,2.39,0,0,0,2.4-2.4"/><path class="cls-2" d="M218.52,33.79v-.16a3.59,3.59,0,0,0,2.65-1.44,6.5,6.5,0,0,0,1.32-4.57c0-1.85-.2-4.41-1.76-6a6.85,6.85,0,0,0-5.1-1.68H201.84a3.72,3.72,0,0,0-3,1.16A4.66,4.66,0,0,0,198,24V44a4.24,4.24,0,0,0,1,2.85c1.12,1.28,2.4,1.12,3.81,1.12H216.2c1.72,0,3.52,0,5.13-1.8s1.6-4,1.6-5.9c0-1.56,0-3.56-1.32-5A4.73,4.73,0,0,0,218.52,33.79Zm-15.23-8.1a1.92,1.92,0,0,1,.36-1.24c.32-.36.76-.32,1.2-.32h8.66a3.51,3.51,0,0,1,2.61.72,4.15,4.15,0,0,1,.92,3c0,1.92-.4,2.6-.6,2.84-.73,1-1.85,1-2.89,1H203.29Zm13.47,17.08a4,4,0,0,1-3.09,1h-8.34a2.38,2.38,0,0,1-1.72-.44,2.69,2.69,0,0,1-.32-1.64V35.92H214a3.32,3.32,0,0,1,2.85,1.16,5.53,5.53,0,0,1,.6,2.84A4.74,4.74,0,0,1,216.76,42.77Zm37.35,1H238.72a2,2,0,0,1-1.33-.32,1.47,1.47,0,0,1-.36-1.2V19.92h-5.29v25a3,3,0,0,0,1,2.33,4.37,4.37,0,0,0,2.61.72h18.76Zm30.78-5.65V19.92H279.6V37.4c0,1.4,0,3.49-1.32,4.89-1.44,1.6-4,1.8-5.57,1.8s-4-.2-5.54-1.8c-1.32-1.44-1.36-3.33-1.36-4.89V19.92h-5.29v18.2c0,2.37.32,5,2.44,7.18,2.81,2.88,7.18,3,9.75,3s6.93-.12,9.74-3C284.57,43.13,284.89,40.49,284.89,38.12Zm15.31,5.29a1.48,1.48,0,0,1-.4-1.08V35.75h16.64v-4.2H299.8V25.89a1.7,1.7,0,0,1,.44-1.36,2.09,2.09,0,0,1,1.44-.4h15.16V19.92h-18A4.34,4.34,0,0,0,295.47,21a4.6,4.6,0,0,0-1,2.93V43.81a4.28,4.28,0,0,0,1,3.29,4.16,4.16,0,0,0,3.21.88H317V43.77H302A2.69,2.69,0,0,1,300.2,43.41ZM350.54,48h11.83V43.77h-9.5c-3.33,0-5.9-.48-7.34-2.68-.56-.89-1.32-2.61-1.32-6.82s.72-6.29,1.56-7.54c1.6-2.4,4.25-2.6,7.37-2.6h8.78V19.92H350.66c-2,0-6.37.24-9.18,3.53-2.37,2.76-2.73,6.89-2.73,10.9,0,3.09.2,7.38,2.85,10.35S347.85,48,350.54,48ZM396,48V19.92h-5.29V31.43H376.07V19.92h-5.29V48h5.29V35.63h14.59V48Zm15.31-4.57a1.48,1.48,0,0,1-.4-1.08V35.75H427.5v-4.2H410.86V25.89a1.7,1.7,0,0,1,.44-1.36,2.09,2.09,0,0,1,1.44-.4H427.9V19.92h-18A4.34,4.34,0,0,0,406.53,21a4.6,4.6,0,0,0-1,2.93V43.81a4.28,4.28,0,0,0,1,3.29,4.16,4.16,0,0,0,3.21.88h18.24V43.77h-15A2.69,2.69,0,0,1,411.26,43.41Zm30.9,0a1.48,1.48,0,0,1-.4-1.08V35.75H458.4v-4.2H441.76V25.89a1.7,1.7,0,0,1,.44-1.36,2.09,2.09,0,0,1,1.44-.4H458.8V19.92h-18A4.34,4.34,0,0,0,437.43,21a4.6,4.6,0,0,0-1,2.93V43.81a4.28,4.28,0,0,0,1,3.29,4.16,4.16,0,0,0,3.21.88H459V43.77H444A2.69,2.69,0,0,1,442.16,43.41Zm49.62-23.49H464.56v4.21h10.95V48h5.29V24.13h11Zm14.39-.32c-2.53,0-3.61.8-4.61,3.17L491,48h5.57l2.84-7.09H512.9L515.79,48h5.57L510.78,22.77C509.78,20.4,508.58,19.6,506.17,19.6Zm-5.41,17.52,4.61-11.43c.16-.4.44-1.16.8-1.16s.64.76.8,1.16l4.57,11.43Zm46.49-17.2V31.43H532.66V19.92h-5.29V48h5.29V35.63h14.59V48h5.3V19.92ZM258.18,59.58a1.81,1.81,0,0,0-1.55-.75,1.84,1.84,0,0,0-1.55.74L249.52,67a.89.89,0,0,0-.18.53.84.84,0,0,0,.29.66,1.06,1.06,0,0,0,.73.27,1,1,0,0,0,.85-.42l1.2-1.59h8.45L262,68.06a1,1,0,0,0,.86.42,1,1,0,0,0,.72-.27.85.85,0,0,0,.3-.66.89.89,0,0,0-.18-.53Zm-4.39,5,2.84-3.81,2.84,3.81Zm30.3-5.78a1,1,0,0,0-.75.28.89.89,0,0,0-.31.69v5.64l-8.32-6.39a1.1,1.1,0,0,0-.67-.22,1.08,1.08,0,0,0-.76.28.89.89,0,0,0-.31.69v7.72a.86.86,0,0,0,.31.68,1.16,1.16,0,0,0,1.51,0,.86.86,0,0,0,.31-.68V61.87l8.3,6.38a1.06,1.06,0,0,0,.69.23,1.08,1.08,0,0,0,.75-.28.87.87,0,0,0,.32-.68V59.8a.9.9,0,0,0-.32-.69A1.08,1.08,0,0,0,284.09,58.83Zm19,.75a1.81,1.81,0,0,0-1.55-.75,1.84,1.84,0,0,0-1.55.74L294.4,67a.89.89,0,0,0-.18.53.85.85,0,0,0,.3.66,1,1,0,0,0,.72.27,1,1,0,0,0,.85-.42l1.2-1.59h8.45l1.17,1.59a1,1,0,0,0,.86.42,1,1,0,0,0,.72-.27.85.85,0,0,0,.3-.66.89.89,0,0,0-.18-.53Zm-4.39,5,2.84-3.81,2.84,3.81ZM320,59.8a.89.89,0,0,0-.31-.69,1.16,1.16,0,0,0-1.51,0,.93.93,0,0,0-.31.69v6.75a1.79,1.79,0,0,0,.63,1.37,2.16,2.16,0,0,0,1.5.56h7.93a2.2,2.2,0,0,0,1.5-.56,1.79,1.79,0,0,0,.63-1.37H320Zm30.6,1.49a4.85,4.85,0,0,0-.84-1,5.4,5.4,0,0,0-1.07-.75,5.3,5.3,0,0,0-1.26-.48A5.45,5.45,0,0,0,346,58.9h-1.59a5.45,5.45,0,0,0-1.41.18,5.55,5.55,0,0,0-1.27.48,5.4,5.4,0,0,0-1.07.75,5.14,5.14,0,0,0-.83,1,4.45,4.45,0,0,0-.53,1.15,4.22,4.22,0,0,0-.19,1.28A4.18,4.18,0,0,0,339.3,65a4.3,4.3,0,0,0,.53,1.15,5.14,5.14,0,0,0,.83,1,5.4,5.4,0,0,0,1.07.75,5.55,5.55,0,0,0,1.27.48,5.45,5.45,0,0,0,1.41.18H346a5.45,5.45,0,0,0,1.41-.18,5.3,5.3,0,0,0,1.26-.48,5.4,5.4,0,0,0,1.07-.75,4.85,4.85,0,0,0,.84-1,4.63,4.63,0,0,0,.53-1.15,4.5,4.5,0,0,0,.19-1.28,4.56,4.56,0,0,0-.19-1.28A4.8,4.8,0,0,0,350.58,61.29Zm-1.66,3.55a3.06,3.06,0,0,1-.68.92,3.23,3.23,0,0,1-1,.62,3.32,3.32,0,0,1-1.23.23h-1.59a3.41,3.41,0,0,1-1.24-.23,3.18,3.18,0,0,1-1-.62,2.9,2.9,0,0,1-.68-.92,2.66,2.66,0,0,1,0-2.25,2.9,2.9,0,0,1,.68-.92,3.38,3.38,0,0,1,1-.62,3.41,3.41,0,0,1,1.24-.23H346a3.32,3.32,0,0,1,1.23.23,3.43,3.43,0,0,1,1,.62,3.06,3.06,0,0,1,.68.92,2.66,2.66,0,0,1,0,2.25Zm14.35-3.22a3.43,3.43,0,0,1,1-.62,3.36,3.36,0,0,1,1.23-.23h6.88a1.77,1.77,0,0,0-.63-1.36,2.16,2.16,0,0,0-1.5-.57h-4.75a5.77,5.77,0,0,0-1.4.17,5.68,5.68,0,0,0-1.27.49,5.45,5.45,0,0,0-1.07.76,4.55,4.55,0,0,0-.83,1,4.66,4.66,0,0,0-.54,1.15,4.55,4.55,0,0,0-.18,1.28A4.5,4.5,0,0,0,360.4,65a4.66,4.66,0,0,0,.54,1.15,4.8,4.8,0,0,0,.83,1,5.4,5.4,0,0,0,1.07.75,6.19,6.19,0,0,0,1.27.48,5.77,5.77,0,0,0,1.4.17h3.69a3.22,3.22,0,0,0,2.25-.85,2.69,2.69,0,0,0,0-4.09,3.22,3.22,0,0,0-2.25-.85h-5.84a1.75,1.75,0,0,0,.63,1.36,2.13,2.13,0,0,0,1.5.57h3.71a1.08,1.08,0,0,1,.75.28.91.91,0,0,1,0,1.37,1.08,1.08,0,0,1-.75.28h-3.69a3.17,3.17,0,0,1-1.23-.23,3.06,3.06,0,0,1-1-.62,2.94,2.94,0,0,1-.68-.92,2.63,2.63,0,0,1,0-2.24A2.94,2.94,0,0,1,363.27,61.62Zm41.1-.4a4.79,4.79,0,0,0-.83-1,5,5,0,0,0-1.08-.75A5.79,5.79,0,0,0,401.2,59a5.92,5.92,0,0,0-1.41-.17H395a2.17,2.17,0,0,0-1.51.57,1.79,1.79,0,0,0-.62,1.36v6.76a.89.89,0,0,0,.31.68,1.16,1.16,0,0,0,1.51,0,.86.86,0,0,0,.31-.68V60.77h4.78A3.36,3.36,0,0,1,401,61a3.23,3.23,0,0,1,1,.62,2.94,2.94,0,0,1,.68.92,2.63,2.63,0,0,1,0,2.24,2.94,2.94,0,0,1-.68.92,3.23,3.23,0,0,1-1,.62,3.36,3.36,0,0,1-1.23.23h-4.15a1.79,1.79,0,0,0,.63,1.37,2.16,2.16,0,0,0,1.5.56h2a5.9,5.9,0,0,0,1.4-.17,5.68,5.68,0,0,0,1.27-.49,5.4,5.4,0,0,0,1.07-.75,4.8,4.8,0,0,0,.83-1,4.9,4.9,0,0,0,.54-1.16,4.41,4.41,0,0,0,0-2.56A4.8,4.8,0,0,0,404.37,61.22Zm21.9-.46a2.16,2.16,0,0,0-.84-1.37,2.59,2.59,0,0,0-1.65-.56h-7.51a2.17,2.17,0,0,0-1.51.57,1.82,1.82,0,0,0-.63,1.36v5.79a1.84,1.84,0,0,0,.63,1.37,2.21,2.21,0,0,0,1.51.56h7.51a2.59,2.59,0,0,0,1.65-.55,2.16,2.16,0,0,0,.84-1.38h-10V64.62h5.17a2.13,2.13,0,0,0,1.5-.57,1.74,1.74,0,0,0,.62-1.36h-7.29V60.76Zm12.24,0h9a1.77,1.77,0,0,0-.63-1.36,2.16,2.16,0,0,0-1.5-.57h-6.89a3.18,3.18,0,0,0-2.24.85,2.68,2.68,0,0,0,0,4.06,3.21,3.21,0,0,0,2.24.84h5.85v0a1,1,0,0,1,.73.29.89.89,0,0,1,.31.68.85.85,0,0,1-.31.67,1,1,0,0,1-.73.29h-9a1.79,1.79,0,0,0,.63,1.37,2.16,2.16,0,0,0,1.5.56h6.89v0a3.21,3.21,0,0,0,2.23-.84,2.67,2.67,0,0,0,0-4.07,3.21,3.21,0,0,0-2.23-.84h-5.85a1.05,1.05,0,0,1-.74-.28.91.91,0,0,1-.3-.68.93.93,0,0,1,.3-.68A1.06,1.06,0,0,1,438.51,60.76Zm19.14-1.93a1.06,1.06,0,0,0-.75.28.89.89,0,0,0-.31.69v7.72a.86.86,0,0,0,.31.68,1.06,1.06,0,0,0,.75.28,1,1,0,0,0,.75-.28.86.86,0,0,0,.31-.68V59.8a.89.89,0,0,0-.31-.69A1,1,0,0,0,457.65,58.83Zm13.19,2.79a3.56,3.56,0,0,1,1-.62,3.41,3.41,0,0,1,1.24-.23H480a1.77,1.77,0,0,0-.63-1.36,2.13,2.13,0,0,0-1.5-.57h-4.75a5.9,5.9,0,0,0-1.4.17,5.79,5.79,0,0,0-1.26.49,5.52,5.52,0,0,0-1.08.76,4.85,4.85,0,0,0-.83,1,4.3,4.3,0,0,0-.53,1.15,4.22,4.22,0,0,0-.19,1.28A4.18,4.18,0,0,0,468,65a4.3,4.3,0,0,0,.53,1.15,5.14,5.14,0,0,0,.83,1,5.48,5.48,0,0,0,1.08.75,6.32,6.32,0,0,0,1.26.48,5.9,5.9,0,0,0,1.4.17h3.7a3.19,3.19,0,0,0,2.24-.85,2.69,2.69,0,0,0,0-4.09,3.19,3.19,0,0,0-2.24-.85h-5.84a1.74,1.74,0,0,0,.62,1.36,2.16,2.16,0,0,0,1.5.57h3.72a1.07,1.07,0,0,1,.74.28.91.91,0,0,1,0,1.37,1.07,1.07,0,0,1-.74.28h-3.69a3.22,3.22,0,0,1-1.24-.23,3.16,3.16,0,0,1-1-.62,3.1,3.1,0,0,1-.68-.92,2.73,2.73,0,0,1,0-2.24A3.1,3.1,0,0,1,470.84,61.62Zm29.3-2.79a1,1,0,0,0-.75.28.89.89,0,0,0-.31.69v5.64l-8.32-6.39a1.11,1.11,0,0,0-.68-.22,1.08,1.08,0,0,0-.75.28.89.89,0,0,0-.31.69v7.72a.86.86,0,0,0,.31.68,1.16,1.16,0,0,0,1.51,0,.89.89,0,0,0,.31-.68V61.87l8.3,6.38a1.06,1.06,0,0,0,.69.23,1.08,1.08,0,0,0,.75-.28.87.87,0,0,0,.32-.68V59.8a.9.9,0,0,0-.32-.69A1.08,1.08,0,0,0,500.14,58.83Z"/></svg>