<?xml version="1.0" encoding="utf-8"?>
<!-- Generator: Adobe Illustrator 23.0.0, SVG Export Plug-In . SVG Version: 6.00 Build 0)  -->
<svg version="1.1" id="Layer_1" xmlns="http://www.w3.org/2000/svg" xmlns:xlink="http://www.w3.org/1999/xlink" x="0px" y="0px"
	 width="163.9px" height="84.9px" viewBox="0 0 163.9 84.9" style="enable-background:new 0 0 163.9 84.9;" xml:space="preserve">
<style type="text/css">
	.st0{fill:#FE5C00;}
	.st1{fill:#231F20;}
</style>
<g>
	<path class="st0" d="M64.1,13.8H34.3c-8,0-15.2,5-18,12.5L0,71h43.1l-1.2,3.2l14.7,10.7h22.1c9.8,0,18.6-6.1,21.9-15.3l0.3-0.8
		l3.4,2.3h25.3c8.1,0,15.4-5.1,18.2-12.8l16.1-44.4h-42.8l1.1-3.1L107.4,0H85.1C76.3,0,67.1,5.5,64.1,13.8L64.1,13.8z"/>
	<path class="st1" d="M20.2,27.9l-7.5,20.3l4.5,3.2h-5.7L5.9,66.8h43l-2.1,5.8l11.1,8.1h20.9C87,80.7,94.3,75.6,97,68l2-5.6l6.6,4.5
		h24c6.4,0,12.1-4,14.3-10L158,17.8h-42.9l2-5.5l-11.1-8H85.4c-8.1,0-15.3,5-18.1,12.6l-0.3,1H34.8C28.3,17.7,22.5,21.8,20.2,27.9z"
		/>
	<g>
		<path class="st0" d="M108.8,22.3l3.1-8.5l-7.4-5.3H85.3c-6.2,0-11.8,3.9-13.9,9.7l-7.3,19.9l20.3,16.2l-4.1,11.6H66.9l3.7-10.1
			h-56l-2.5,6.8h43L52,71l7.3,5.3h19.4c6.1,0,11.6-3.8,13.7-9.6l7.4-20.2L79.8,30.6L84,18.9H97l-3.7,10.4h55.9l2.5-7H108.8z"/>
		<path class="st0" d="M47.8,51.4c4.1,0,7.8-2.6,9.2-6.4l6.7-18.3L57.3,22H35.1c-4.9,0-9.3,3-10.9,7.6l-6.3,17l6.5,4.8H47.8z
			 M37.3,26.4H52l-7.4,20.8H29.8L37.3,26.4z"/>
		<path class="st0" d="M128.3,54.6c-0.8,2.3-2.9,3.8-5.3,3.8h-10.8l9.1-24.8h-11.8l-8.9,24.7l6.6,4.5h22c4.8,0,9.1-3,10.8-7.6
			l7.9-21.6h-11.9L128.3,54.6z"/>
	</g>
	<g>
		<path class="st0" d="M145.2,71.1c-1.3,0-2.4-1.1-2.4-2.4s1.1-2.4,2.4-2.4s2.4,1.1,2.4,2.4C147.6,70,146.6,71.1,145.2,71.1z
			 M145.3,66.6c-1.2,0-2.1,0.9-2.1,2.1s0.9,2.1,2.1,2.1c1.2,0,2.1-0.9,2.1-2.1C147.3,67.5,146.4,66.6,145.3,66.6z M145.8,69l0.6,0.9
			h-0.6l-0.5-0.8h-0.4v0.8h-0.6v-2.5h1.1c0.6,0,1,0.3,1,0.8C146.4,68.6,146.1,68.9,145.8,69z M145.4,67.9h-0.5v0.7h0.6
			c0.3,0,0.4-0.2,0.4-0.4C145.8,68,145.6,67.9,145.4,67.9z"/>
	</g>
</g>
</svg>
