<svg id="Layer_1" data-name="Layer 1" xmlns="http://www.w3.org/2000/svg" viewBox="0 0 237.7 36">
  <title>OSC Logo</title>
  <g>
    <g>
      <path d="M27.48,18A13.74,13.74,0,1,1,13.74,4.26,13.74,13.74,0,0,1,27.48,18" fill="#c6102e"/>
      <g>
        <path d="M22.24,13.75H21.09v.69h1.16a.35.35,0,0,0,0-.69Z" fill="#fff"/>
        <path d="M22.59,15.71a.35.35,0,0,0-.35-.35H21.09v.69h1.16A.35.35,0,0,0,22.59,15.71Z" fill="#fff"/>
        <path d="M20.08,11.26h-4.8a.43.43,0,0,0-.43.43v4.79a.43.43,0,0,0,.43.43h4.8a.43.43,0,0,0,.43-.43V11.7A.43.43,0,0,0,20.08,11.26Zm-.4,4.48a.29.29,0,0,1-.29.29H17a.29.29,0,0,1,0-.57h2.1v-2.1a.29.29,0,0,1,.57,0Z" fill="#fff"/>
        <path d="M21.09,12.82h1.16a.35.35,0,0,0,0-.69H21.09Z" fill="#fff"/>
        <path d="M17.9,10.69V9.41a.35.35,0,0,0-.69,0v1.28Z" fill="#fff"/>
        <rect x="13.45" y="12.14" width="0.83" height="0.69" fill="#fff"/>
        <path d="M11.88,10.7V9.42a.35.35,0,1,0-.69,0V10.7Z" fill="#fff"/>
        <rect x="13.45" y="15.37" width="0.83" height="0.69" fill="#fff"/>
        <path d="M12.45,11.27H7.65a.43.43,0,0,0-.43.43v4.8a.43.43,0,0,0,.43.43h4.79a.43.43,0,0,0,.43-.43v-4.8A.43.43,0,0,0,12.45,11.27ZM12,15.76a.29.29,0,0,1-.29.29H9.37a.29.29,0,0,1,0-.57h2.1v-2.1a.29.29,0,1,1,.57,0Z" fill="#fff"/>
        <rect x="13.45" y="13.76" width="0.83" height="0.69" fill="#fff"/>
        <path d="M10.27,10.7V9.42a.35.35,0,0,0-.69,0V10.7Z" fill="#fff"/>
        <path d="M5.24,16.07H6.65v-.69H5.24a.35.35,0,0,0,0,.69Z" fill="#fff"/>
        <path d="M5.24,20.63H6.65v-.69H5.24a.35.35,0,0,0,0,.69Z" fill="#fff"/>
        <rect x="7.96" y="17.51" width="0.69" height="1" fill="#fff"/>
        <path d="M12.45,19.07H7.65a.43.43,0,0,0-.43.43v4.8a.43.43,0,0,0,.43.43h4.79a.43.43,0,0,0,.43-.43v-4.8A.43.43,0,0,0,12.45,19.07ZM12,23.55a.28.28,0,0,1-.28.29H9.44a.29.29,0,0,1,0-.57h2v-2a.29.29,0,0,1,.57,0Z" fill="#fff"/>
        <rect x="11.19" y="17.51" width="0.69" height="1" fill="#fff"/>
        <rect x="9.58" y="17.51" width="0.69" height="1" fill="#fff"/>
        <path d="M6.65,23.17H5.24a.35.35,0,0,0,0,.69H6.65Z" fill="#fff"/>
        <rect x="17.21" y="17.49" width="0.69" height="1" fill="#fff"/>
        <rect x="18.83" y="17.49" width="0.69" height="1" fill="#fff"/>
        <path d="M22.59,21.89a.35.35,0,0,0-.35-.35H21.09v.69h1.16A.35.35,0,0,0,22.59,21.89Z" fill="#fff"/>
        <path d="M20.08,19.06h-4.8a.43.43,0,0,0-.43.43v4.8a.43.43,0,0,0,.43.43h4.8a.43.43,0,0,0,.43-.43V19.5A.43.43,0,0,0,20.08,19.06Zm-.4,4.48a.29.29,0,0,1-.29.29H16.94a.29.29,0,0,1,0-.57h2.17V21.09a.29.29,0,1,1,.57,0Z" fill="#fff"/>
        <path d="M21.09,20.62h1.16a.35.35,0,0,0,0-.69H21.09Z" fill="#fff"/>
        <rect x="13.45" y="19.94" width="0.83" height="0.69" fill="#fff"/>
        <rect x="15.6" y="17.49" width="0.69" height="1" fill="#fff"/>
        <path d="M18.83,25.3v1.28a.35.35,0,0,0,.69,0V25.3Z" fill="#fff"/>
        <rect x="13.45" y="21.56" width="0.83" height="0.69" fill="#fff"/>
        <path d="M17.21,25.3v1.28a.35.35,0,0,0,.69,0V25.3Z" fill="#fff"/>
        <path d="M22.24,23.16H21.09v.69h1.16a.35.35,0,0,0,0-.69Z" fill="#fff"/>
        <rect x="13.45" y="23.17" width="0.83" height="0.69" fill="#fff"/>
        <path d="M15.6,25.3v1.28a.35.35,0,1,0,.69,0V25.3Z" fill="#fff"/>
        <path d="M11.19,25.31v1.28a.35.35,0,1,0,.69,0V25.31Z" fill="#fff"/>
        <path d="M5.24,22.25H6.65v-.69H5.24a.35.35,0,0,0,0,.69Z" fill="#fff"/>
        <path d="M9.58,25.31v1.28a.35.35,0,1,0,.69,0V25.31Z" fill="#fff"/>
        <path d="M8,25.31v1.28a.35.35,0,1,0,.69,0V25.31Z" fill="#fff"/>
        <path d="M8.65,10.7V9.42a.35.35,0,1,0-.69,0V10.7Z" fill="#fff"/>
        <path d="M5.24,14.45H6.65v-.69H5.24a.35.35,0,0,0,0,.69Z" fill="#fff"/>
        <path d="M5.24,12.83H6.65v-.69H5.24a.35.35,0,0,0,0,.69Z" fill="#fff"/>
        <path d="M16.29,10.69V9.41a.35.35,0,1,0-.69,0v1.28Z" fill="#fff"/>
        <path d="M19.52,10.69V9.41a.35.35,0,0,0-.69,0v1.28Z" fill="#fff"/>
      </g>
    </g>
    <rect x="38.88" width="0.6" height="36" fill="#53565a"/>
    <g>
      <g>
        <path d="M55.83,5.06a4.77,4.77,0,0,1,3.62,1.4,5.93,5.93,0,0,1,1.31,3.88,6.33,6.33,0,0,1-1.3,4,4.9,4.9,0,0,1-3.66,1.47,5,5,0,0,1-3.65-1.41,5.66,5.66,0,0,1-1.27-3.85C50.89,7.84,52.13,5.06,55.83,5.06ZM54,13.38a2.12,2.12,0,0,0,1.87.83,2.09,2.09,0,0,0,1.92-1,5,5,0,0,0,.7-3,5.93,5.93,0,0,0-.26-1.84,2.38,2.38,0,0,0-2.35-1.82,2.34,2.34,0,0,0-1.9.87,4.79,4.79,0,0,0-.76,3A4.75,4.75,0,0,0,54,13.38Z" fill="#c6102e"/>
        <path d="M62.23,5.28h2.1V9.36a2.32,2.32,0,0,1,2.08-1.08,2.59,2.59,0,0,1,2.1,1,3.43,3.43,0,0,1,.47,2v4.38h-2.1V11.27c0-.41,0-1.57-1.18-1.57a1.31,1.31,0,0,0-1.35,1.47v4.41H62.23Z" fill="#c6102e"/>
        <path d="M70.68,5.28h2.25V7.12H70.68Zm.07,3.08h2.11v7.21H70.75Z" fill="#c6102e"/>
        <path d="M78,8.21A3.49,3.49,0,0,1,81.71,12a3.57,3.57,0,0,1-3.78,3.85A3.48,3.48,0,0,1,74.25,12,3.52,3.52,0,0,1,78,8.21Zm0,6.16c.93,0,1.55-.56,1.55-2.47,0-1-.19-2.28-1.58-2.28s-1.55,1.78-1.55,2.44C76.42,13.67,77,14.36,78,14.36Z" fill="#c6102e"/>
        <path d="M88.81,12.28a1.68,1.68,0,0,0,1.87,2c1.2,0,2-.57,2-1.44s-.64-1.07-2-1.38c-2.45-.61-3.79-1.34-3.79-3.12S88.1,5.1,91,5.1a3.85,3.85,0,0,1,3.11,1.21,3,3,0,0,1,.58,1.91H92.53a1.53,1.53,0,0,0-1.67-1.57c-1,0-1.7.56-1.7,1.4s.76,1.13,2.24,1.5c1.78.43,3.54.91,3.54,2.92,0,1.85-1.54,3.35-4.39,3.35-3.95,0-4-2.54-4-3.54Z" fill="#c6102e"/>
        <path d="M98.43,8.38v4.29c0,.63,0,1.58,1.13,1.58,1.35,0,1.35-1,1.35-2.24V8.38h2.17v4.75c0,1.55,0,1.74,0,1.92s0,.33.06.53h-2.05l-.07-1a2.36,2.36,0,0,1-2.12,1.14,2.74,2.74,0,0,1-2.17-1,3.32,3.32,0,0,1-.47-1.94V8.38Z" fill="#c6102e"/>
        <path d="M106.92,8.38l.06,1a2.4,2.4,0,0,1,2.2-1.17c1.87,0,3,1.4,3,3.59,0,2-1.06,3.85-3.14,3.85a2.31,2.31,0,0,1-2-.93v3.59h-2.15v-10ZM110,11.91c0-.86-.21-2.32-1.45-2.32-.68,0-1.65.51-1.65,2.45,0,.43,0,2.25,1.57,2.25C109.48,14.29,110,13.34,110,11.91Z" fill="#c6102e"/>
        <path d="M115.22,12.51c0,.47,0,1.92,1.47,1.92a1.18,1.18,0,0,0,1.25-1h1.92a2.41,2.41,0,0,1-.68,1.57,3.5,3.5,0,0,1-2.52.84,3.58,3.58,0,0,1-2.54-.9,3.92,3.92,0,0,1-.93-2.81,4,4,0,0,1,1.5-3.41,3.61,3.61,0,0,1,2-.6,3.09,3.09,0,0,1,2.91,1.74,5.34,5.34,0,0,1,.43,2.64Zm2.68-1.33c0-.33,0-1.61-1.25-1.61-.93,0-1.31.77-1.35,1.61Z" fill="#c6102e"/>
        <path d="M121.3,10.15c0-.34-.06-1.38-.1-1.8h2l0,1.38a2.17,2.17,0,0,1,2.45-1.4v1.9c-2.14-.2-2.27.9-2.27,1.8v3.55H121.3Z" fill="#c6102e"/>
        <path d="M130.24,10.93c0-.26-.11-1.33-.93-1.33-1,0-1.11,1.51-1.11,2.3a4,4,0,0,0,.53,2.21.73.73,0,0,0,.57.24c.23,0,.88-.1,1-1.38h2.08a2.73,2.73,0,0,1-.93,2.12,3,3,0,0,1-2.05.67,3,3,0,0,1-2.45-1A4.19,4.19,0,0,1,126,12c0-3.28,2.41-3.74,3.36-3.74a2.7,2.7,0,0,1,2.94,2.69Z" fill="#c6102e"/>
        <path d="M136.82,8.21A3.49,3.49,0,0,1,140.55,12a3.57,3.57,0,0,1-3.78,3.85A3.48,3.48,0,0,1,133.09,12,3.52,3.52,0,0,1,136.82,8.21Zm0,6.16c.93,0,1.55-.56,1.55-2.47,0-1-.19-2.28-1.58-2.28s-1.55,1.78-1.55,2.44C135.26,13.67,135.8,14.36,136.84,14.36Z" fill="#c6102e"/>
        <path d="M142,9.73c0-.46,0-.9-.07-1.35h2l.07.93a2.48,2.48,0,0,1,2.22-1.08,2.19,2.19,0,0,1,2.27,1.35,2.39,2.39,0,0,1,2.31-1.34,2.36,2.36,0,0,1,2.2,1.16,4.14,4.14,0,0,1,.36,2.12v4.06H151.3V11.34c0-.77-.11-1.63-1.21-1.63-1.27,0-1.3,1.18-1.3,2.25v3.61h-2.12V11.3c0-.56,0-1.58-1.18-1.58-1.33,0-1.33,1.14-1.33,1.63v4.23H142Z" fill="#c6102e"/>
        <path d="M157.3,8.38l.06,1a2.4,2.4,0,0,1,2.2-1.17c1.87,0,3,1.4,3,3.59,0,2-1.06,3.85-3.14,3.85a2.31,2.31,0,0,1-2-.93v3.59h-2.15v-10Zm3.11,3.54c0-.86-.21-2.32-1.45-2.32-.68,0-1.65.51-1.65,2.45,0,.43,0,2.25,1.57,2.25C159.87,14.29,160.41,13.34,160.41,11.91Z" fill="#c6102e"/>
        <path d="M166,8.38v4.29c0,.63,0,1.58,1.13,1.58,1.35,0,1.35-1,1.35-2.24V8.38h2.17v4.75c0,1.55,0,1.74,0,1.92s0,.33.06.53h-2.05l-.07-1a2.36,2.36,0,0,1-2.12,1.14,2.74,2.74,0,0,1-2.17-1,3.32,3.32,0,0,1-.47-1.94V8.38Z" fill="#c6102e"/>
        <path d="M176.71,15.48a6.54,6.54,0,0,1-1.64.23c-2.12,0-2.12-1.34-2.12-1.94V9.82h-1.38V8.42h1.38V7l2.1-.77V8.42h1.71v1.4H175v3.25c0,.66,0,1.07,1,1.07a5.29,5.29,0,0,0,.71,0Z" fill="#c6102e"/>
        <path d="M179.3,12.51c0,.47,0,1.92,1.47,1.92a1.18,1.18,0,0,0,1.25-1h1.92a2.41,2.41,0,0,1-.68,1.57,3.5,3.5,0,0,1-2.52.84,3.58,3.58,0,0,1-2.54-.9,3.92,3.92,0,0,1-.93-2.81,4,4,0,0,1,1.5-3.41,3.61,3.61,0,0,1,2-.6,3.09,3.09,0,0,1,2.91,1.74,5.34,5.34,0,0,1,.43,2.64ZM182,11.19c0-.33,0-1.61-1.25-1.61-.93,0-1.31.77-1.35,1.61Z" fill="#c6102e"/>
        <path d="M185.4,10.15c0-.34-.06-1.38-.1-1.8h2l0,1.38a2.17,2.17,0,0,1,2.45-1.4v1.9c-2.14-.2-2.27.9-2.27,1.8v3.55H185.4Z" fill="#c6102e"/>
        <path d="M200.5,8.63c0-.36-.17-1.81-1.67-1.81s-2.32,1.71-2.32,3.84c0,.61,0,3.54,2.15,3.54a1.81,1.81,0,0,0,1.85-2h2.32a3.52,3.52,0,0,1-.93,2.42,4,4,0,0,1-3,1.15c-3.55,0-4.7-2.62-4.7-5.18,0-3.26,1.82-5.43,4.72-5.43,2.25,0,3.84,1.37,3.84,3.42Z" fill="#c6102e"/>
        <path d="M205.72,12.51c0,.47,0,1.92,1.47,1.92a1.18,1.18,0,0,0,1.25-1h1.93a2.42,2.42,0,0,1-.68,1.57,3.5,3.5,0,0,1-2.52.84,3.58,3.58,0,0,1-2.54-.9,3.92,3.92,0,0,1-.93-2.81,4,4,0,0,1,1.5-3.41,3.61,3.61,0,0,1,2-.6,3.09,3.09,0,0,1,2.91,1.74,5.34,5.34,0,0,1,.43,2.64Zm2.68-1.33c0-.33,0-1.61-1.26-1.61-.93,0-1.31.77-1.35,1.61Z" fill="#c6102e"/>
        <path d="M211.84,9.66s0-.81,0-1.31h2l.06,1.08a2.49,2.49,0,0,1,2.34-1.25,2.19,2.19,0,0,1,2.19,1.35,6,6,0,0,1,.2,2.15v3.89h-2.15V11.1a1.72,1.72,0,0,0-.11-.78,1.1,1.1,0,0,0-1-.61,1.31,1.31,0,0,0-1.1.56,2,2,0,0,0-.26,1.1v4.22h-2.12Z" fill="#c6102e"/>
        <path d="M224.63,15.48a6.54,6.54,0,0,1-1.64.23c-2.12,0-2.12-1.34-2.12-1.94V9.82h-1.38V8.42h1.38V7l2.1-.77V8.42h1.71v1.4H223v3.25c0,.66,0,1.07,1,1.07a5.28,5.28,0,0,0,.71,0Z" fill="#c6102e"/>
        <path d="M227.22,12.51c0,.47,0,1.92,1.47,1.92a1.18,1.18,0,0,0,1.26-1h1.92a2.4,2.4,0,0,1-.68,1.57,3.5,3.5,0,0,1-2.52.84,3.59,3.59,0,0,1-2.54-.9,3.92,3.92,0,0,1-.93-2.81,4,4,0,0,1,1.5-3.41,3.61,3.61,0,0,1,2-.6,3.09,3.09,0,0,1,2.91,1.74,5.36,5.36,0,0,1,.43,2.64Zm2.68-1.33c0-.33,0-1.61-1.25-1.61-.93,0-1.31.77-1.35,1.61Z" fill="#c6102e"/>
        <path d="M233.32,10.15c0-.34-.06-1.38-.1-1.8h2l0,1.38a2.17,2.17,0,0,1,2.45-1.4v1.9c-2.14-.2-2.27.9-2.27,1.8v3.55h-2.11Z" fill="#c6102e"/>
      </g>
      <g>
        <path d="M53.35,23.3h.87l2.37,5.86H55.7l-.63-1.52H52.35l-.63,1.52h-.84ZM52.61,27h2.21L53.75,24.1Z" fill="#53565a"/>
        <path d="M57.37,25.55v-.47h.76v.66A1.33,1.33,0,0,1,59.44,25a1.36,1.36,0,0,1,1.48,1.39v2.77h-.78V26.57a.92.92,0,0,0-.22-.7,1,1,0,0,0-.72-.28,1.08,1.08,0,0,0-1.06,1.22v2.34h-.76Z" fill="#53565a"/>
        <g>
          <path d="M71.8,28.52h.57a.55.55,0,0,1,.22,0,.54.54,0,0,1,0-.22v-4a.54.54,0,0,1,0-.22.55.55,0,0,1-.22,0H71.8v-.94h3v.94h-.7a.55.55,0,0,1-.22,0,.55.55,0,0,1,0,.22v1.27a.56.56,0,0,1,0,.22.55.55,0,0,1,.22,0h2.22a.55.55,0,0,1,.22,0,.54.54,0,0,1,0-.22V24.32a.54.54,0,0,1,0-.22.55.55,0,0,1-.22,0h-.68v-.94h3v.94H78a.5.5,0,0,1-.21,0,.83.83,0,0,1,0,.22v4a.83.83,0,0,1,0,.22.5.5,0,0,1,.21,0h.57v.94H75.65v-.94h.64a.55.55,0,0,1,.22,0,.54.54,0,0,1,0-.22V27a.54.54,0,0,1,0-.22.55.55,0,0,1-.22,0H74.07a.54.54,0,0,1-.22,0,.56.56,0,0,1,0,.22v1.36a.55.55,0,0,1,0,.22.55.55,0,0,1,.22,0h.64v.94H71.8Z" fill="#c6102e"/>
          <g>
            <path d="M82.34,23.19H88v2.2H86.87V24.3a.55.55,0,0,1,0-.22.55.55,0,0,1-.22,0H86a.55.55,0,0,1-.22,0,.55.55,0,0,1,0,.22v4a.56.56,0,0,1,0,.22.55.55,0,0,1,.22,0h.66v.93H83.61v-.93h.71a.5.5,0,0,1,.21,0,.83.83,0,0,1,0-.22v-4a.83.83,0,0,1,0-.22.5.5,0,0,1-.21,0h-.67a.53.53,0,0,1-.22,0,.54.54,0,0,1,0,.22v1.09H82.34Z" fill="#53565a"/>
            <path d="M88.68,28.52h.57a.52.52,0,0,1,.21,0,.8.8,0,0,1,0-.22v-4a.8.8,0,0,1,0-.22.52.52,0,0,1-.21,0h-.57v-.94h5.55v1.92H93.17v-.8a.6.6,0,0,1,0-.23.53.53,0,0,1-.22,0h-2a.52.52,0,0,1-.21,0,.86.86,0,0,1,0,.23v1.31a.79.79,0,0,1,0,.22.52.52,0,0,1,.21,0h.52a.5.5,0,0,1,.21,0,.79.79,0,0,1,0-.22V25h1v2.57h-1v-.82H91a.81.81,0,0,1-.22,0,.79.79,0,0,1,0,.22v1.43a.87.87,0,0,1,0,.23.52.52,0,0,1,.21,0h2a.49.49,0,0,1,.21,0,.87.87,0,0,1,0-.23v-.95h1.08v2.07H88.68Z" fill="#53565a"/>
            <path d="M101.2,27.31c-.08,1.5-1.05,2.29-2.81,2.29a3,3,0,0,1-3.17-3.25c0-2,1.11-3.28,2.91-3.28a2.28,2.28,0,0,1,1.87.75h0a1,1,0,0,1-.06-.35v-.27h1.15v2.35H100A1.47,1.47,0,0,0,98.43,24a1.67,1.67,0,0,0-1.17.46,2.78,2.78,0,0,0-.63,1.84,2.69,2.69,0,0,0,.64,1.83,1.6,1.6,0,0,0,1.19.45,1.35,1.35,0,0,0,1.44-1.32Z" fill="#53565a"/>
            <path d="M101.81,28.52h.57a.55.55,0,0,1,.22,0,.54.54,0,0,1,0-.22v-4a.54.54,0,0,1,0-.22.55.55,0,0,1-.22,0h-.57v-.94h3v.94h-.7a.55.55,0,0,1-.22,0,.55.55,0,0,1,0,.22v1.27a.56.56,0,0,1,0,.22.55.55,0,0,1,.22,0h2.22a.55.55,0,0,1,.22,0,.54.54,0,0,1,0-.22V24.32a.54.54,0,0,1,0-.22.55.55,0,0,1-.22,0h-.68v-.94h3v.94H108a.5.5,0,0,1-.21,0,.83.83,0,0,1,0,.22v4a.83.83,0,0,1,0,.22.5.5,0,0,1,.21,0h.57v.94h-2.91v-.94h.64a.55.55,0,0,1,.22,0,.54.54,0,0,1,0-.22V27a.54.54,0,0,1,0-.22.55.55,0,0,1-.22,0h-2.22a.54.54,0,0,1-.22,0,.56.56,0,0,1,0,.22v1.36a.55.55,0,0,1,0,.22.55.55,0,0,1,.22,0h.64v.94h-2.91Z" fill="#53565a"/>
          </g>
          <path d="M81.11,26.52a.56.56,0,1,1-.56-.56.56.56,0,0,1,.56.56" fill="#53565a"/>
          <path d="M80.9,26.52a.56.56,0,1,1-.56-.56.56.56,0,0,1,.56.56" fill="#53565a"/>
          <path d="M67.5,29.7a3.42,3.42,0,1,1,3.42-3.42A3.42,3.42,0,0,1,67.5,29.7Zm0-5.88A2.47,2.47,0,1,0,70,26.28,2.47,2.47,0,0,0,67.5,23.81Z" fill="#c6102e"/>
        </g>
        <path d="M115.17,24.86a1.11,1.11,0,0,0-1.27-1c-1.41,0-1.66,1.44-1.66,2.42s.32,2.3,1.66,2.3a1.27,1.27,0,0,0,.95-.35,1.15,1.15,0,0,0,.28-.62H116a2,2,0,0,1-2.19,1.63c-2.06,0-2.46-1.82-2.46-3s.48-3.07,2.56-3.07a1.88,1.88,0,0,1,2.1,1.66Z" fill="#53565a"/>
        <path d="M118.78,25a1.92,1.92,0,0,1,2,2.13,2,2,0,0,1-2.06,2.18,1.92,1.92,0,0,1-2-2.13A2,2,0,0,1,118.78,25Zm0,3.75c.58,0,1.23-.41,1.23-1.64,0-1-.47-1.55-1.19-1.55-.49,0-1.27.31-1.27,1.58C117.51,27.94,117.87,28.71,118.73,28.71Z" fill="#53565a"/>
        <path d="M122,25.54v-.47h.76v.66A1.33,1.33,0,0,1,124,25a1.36,1.36,0,0,1,1.48,1.39v2.77h-.78V26.55a.92.92,0,0,0-.22-.7,1,1,0,0,0-.72-.28,1.08,1.08,0,0,0-1.06,1.22v2.34H122Z" fill="#53565a"/>
        <path d="M127.29,27.93c0,.31.15.74.89.74a.83.83,0,0,0,.71-.26A.64.64,0,0,0,129,28c0-.4-.28-.47-.89-.61-.85-.19-1.57-.37-1.57-1.22s.65-1.23,1.59-1.23a1.64,1.64,0,0,1,1.47.63,1.29,1.29,0,0,1,.11.59H129c0-.62-.51-.66-.79-.66-.11,0-.83,0-.83.58,0,.37.36.46.58.52,1.13.27,1.37.33,1.61.56a1,1,0,0,1,.31.75,1.23,1.23,0,0,1-.55,1,2.29,2.29,0,0,1-1.21.28c-.83,0-1.6-.34-1.59-1.32Z" fill="#53565a"/>
        <path d="M132.64,25a1.92,1.92,0,0,1,2,2.13,2,2,0,0,1-2.06,2.18,1.92,1.92,0,0,1-2-2.13A2,2,0,0,1,132.64,25Zm0,3.75c.58,0,1.23-.41,1.23-1.64,0-1-.47-1.55-1.18-1.55-.49,0-1.27.31-1.27,1.58C131.37,27.94,131.72,28.71,132.59,28.71Z" fill="#53565a"/>
        <path d="M135.83,25.89c0-.28,0-.56,0-.83h.77l0,.79a1.1,1.1,0,0,1,1-.8,2.42,2.42,0,0,1,.53,0v.75l-.15,0h-.22c-.9,0-1.11.54-1.11,1.23v2.17h-.77Z" fill="#53565a"/>
        <path d="M138.88,25.05h.72V24.2l.75-.24v1.1h.91v.56h-.91v2.44c0,.2,0,.54.54.54a1.68,1.68,0,0,0,.37,0v.59a3.79,3.79,0,0,1-.63,0c-.7,0-1-.2-1-.87V25.61h-.72Z" fill="#53565a"/>
        <path d="M142.09,23.3H143v.84h-.92Zm.08,1.77h.76v4.07h-.76Z" fill="#53565a"/>
        <path d="M145.08,25.07v2.62c0,.4.09.9.87.9a1.1,1.1,0,0,0,1-.45,1.31,1.31,0,0,0,.17-.76v-2.3h.79v3.31c0,.08,0,.54,0,.76h-.8l0-.7a1.28,1.28,0,0,1-1.3.74,1.3,1.3,0,0,1-1.48-1.38V25.07Z" fill="#53565a"/>
        <path d="M149.29,25.61l0-.54H150v.59a1.39,1.39,0,0,1,1.29-.7,1.29,1.29,0,0,1,1.33.76A1.46,1.46,0,0,1,154,25a1.35,1.35,0,0,1,1.49,1.44v2.73h-.77V26.53a1,1,0,0,0-.14-.62.92.92,0,0,0-.78-.36A1,1,0,0,0,153,26a1.68,1.68,0,0,0-.18.88v2.28H152V26.45a.83.83,0,0,0-.89-.89,1.1,1.1,0,0,0-.89.45,1.42,1.42,0,0,0-.18.83v2.31h-.77Z" fill="#53565a"/>
        <path d="M159.14,23.28h1.44l1.65,4.83,1.7-4.83h1.34v5.86h-.79V23.87l-1.92,5.27h-.77l-1.85-5.24v5.24h-.79Z" fill="#53565a"/>
        <path d="M167.21,27.24c0,.84.33,1.47,1.17,1.47a.89.89,0,0,0,1-.84h.76a1.38,1.38,0,0,1-.35.85,1.76,1.76,0,0,1-1.4.54c-1.28,0-1.89-.79-1.89-2.08a2.11,2.11,0,0,1,.8-1.91,2,2,0,0,1,1.11-.3c1.82,0,1.78,1.61,1.77,2.28Zm2.15-.54c0-.39-.07-1.2-1-1.2a1.09,1.09,0,0,0-1.11,1.2Z" fill="#53565a"/>
        <path d="M171.21,25.61l0-.54H172v.59a1.39,1.39,0,0,1,1.29-.7,1.29,1.29,0,0,1,1.33.76A1.46,1.46,0,0,1,176,25a1.35,1.35,0,0,1,1.49,1.44v2.73h-.77V26.53a1,1,0,0,0-.14-.62.92.92,0,0,0-.78-.36,1,1,0,0,0-.87.43,1.68,1.68,0,0,0-.18.88v2.28h-.77V26.45a.83.83,0,0,0-.89-.89,1.1,1.1,0,0,0-.89.45,1.42,1.42,0,0,0-.18.83v2.31h-.77Z" fill="#53565a"/>
        <path d="M179.6,25.66a1.36,1.36,0,0,1,1.33-.7,1.66,1.66,0,0,1,1.29.52A2.13,2.13,0,0,1,182.7,27a2.35,2.35,0,0,1-.39,1.48,1.72,1.72,0,0,1-1.43.7,1.61,1.61,0,0,1-.91-.26,1.31,1.31,0,0,1-.4-.41l0,.62h-.74l0-.73V23.28h.76Zm1.15-.18c-1.17,0-1.17,1.36-1.17,1.62s0,1.54,1.14,1.54c.94,0,1.18-.92,1.18-1.58C181.9,26.66,181.82,25.48,180.75,25.48Z" fill="#53565a"/>
        <path d="M184.21,27.24c0,.84.33,1.47,1.17,1.47a.89.89,0,0,0,1-.84h.76a1.38,1.38,0,0,1-.35.85,1.77,1.77,0,0,1-1.4.54c-1.28,0-1.89-.79-1.89-2.08a2.11,2.11,0,0,1,.8-1.91,2,2,0,0,1,1.11-.3c1.83,0,1.78,1.61,1.77,2.28Zm2.15-.54c0-.39-.06-1.2-1-1.2a1.09,1.09,0,0,0-1.11,1.2Z" fill="#53565a"/>
        <path d="M188.27,25.89c0-.28,0-.56,0-.83H189l0,.79a1.1,1.1,0,0,1,1-.8,2.4,2.4,0,0,1,.53,0v.75l-.15,0h-.22c-.9,0-1.11.54-1.11,1.23v2.17h-.77Z" fill="#53565a"/>
      </g>
    </g>
  </g>
</svg>
