<?xml version="1.0" encoding="utf-8"?>
<!-- Generator: Adobe Illustrator 21.1.0, SVG Export Plug-In . SVG Version: 6.00 Build 0)  -->
<svg version="1.1" id="Layer_1" xmlns="http://www.w3.org/2000/svg" xmlns:xlink="http://www.w3.org/1999/xlink" x="0px" y="0px"
	 viewBox="0 0 320 221" style="enable-background:new 0 0 320 221;" xml:space="preserve">
<style type="text/css">
	.st0{fill:url(#SVGID_1_);}
	.st1{fill:url(#SVGID_2_);}
	.st2{fill:#004D71;}
</style>
<linearGradient id="SVGID_1_" gradientUnits="userSpaceOnUse" x1="176.204" y1="118.4952" x2="142.5585" y2="36.5219">
	<stop  offset="0" style="stop-color:#006288"/>
	<stop  offset="1" style="stop-color:#B2D235"/>
</linearGradient>
<path class="st0" d="M221.3,81.6h-60.9c-3.7,0-6.8,3-6.8,6.8c0,3.7,3,6.8,6.8,6.8h4.5c2.5,0,4.6,2.1,4.6,4.6c0,2.5-2.1,4.6-4.6,4.6
	H135c-2.5,0-4.6-2.1-4.6-4.6c0-2.5,2.1-4.6,4.6-4.6h1.6c3.7,0,6.8-3,6.8-6.8c0-3.7-3-6.8-6.8-6.8h-29.5c-3.7,0-6.8,3-6.8,6.8
	c0,3.7,3,6.8,6.8,6.8h11.1c2.5,0,4.6,2.1,4.6,4.6c0,2.5-2.1,4.6-4.6,4.6h-2.7c-3.7,0-6.8,3-6.8,6.8c0,3.7,3,6.8,6.8,6.8h40.8
	c2.5,0,4.6,2.1,4.6,4.6v0c0,2.5-2.1,4.6-4.6,4.6h-8.7c-3.7,0-6.8,3-6.8,6.8l0,0c0,3.7,3,6.8,6.8,6.8h34.1c3.7,0,6.8-3,6.8-6.8l0,0
	c0-3.7-3-6.8-6.8-6.8h-8.7c-2.5,0-4.6-2.1-4.6-4.6v0c0-2.5,2.1-4.6,4.6-4.6h38.6c3.7,0,6.8-3,6.8-6.8c0-3.7-3-6.8-6.8-6.8h-9
	c-2.5,0-4.6-2.1-4.6-4.6c0-2.5,2.1-4.6,4.6-4.6h18.7c3.7,0,6.8-3,6.8-6.8C228.1,84.6,225.1,81.6,221.3,81.6z M190.6,99.7
	c0,2.5-2.1,4.6-4.6,4.6h-4.4c-2.5,0-4.6-2.1-4.6-4.6c0-2.5,2.1-4.6,4.6-4.6h4.4C188.5,95.1,190.6,97.1,190.6,99.7z"/>
<linearGradient id="SVGID_2_" gradientUnits="userSpaceOnUse" x1="115.3373" y1="-67.3773" x2="155.2665" y2="41.1435">
	<stop  offset="0" style="stop-color:#006288"/>
	<stop  offset="1" style="stop-color:#B2D235"/>
</linearGradient>
<path class="st1" d="M221.3,58.8H212c-2.5,0-4.6-2.1-4.6-4.6c0-2.5,2.1-4.6,4.6-4.6h-0.4c3.7,0,6.8-3,6.8-6.8c0-3.7-3-6.8-6.8-6.8
	h-36.4h-1.7h-0.5c-2.5,0-4.6-2.1-4.6-4.6c0-2.5,2.1-4.6,4.6-4.6h8.7c3.7,0,6.8-3,6.8-6.8c0-3.7-3-6.8-6.8-6.8h-34.1
	c-3.7,0-6.8,3-6.8,6.8c0,3.7,3,6.8,6.8,6.8h8.7c2.5,0,4.6,2.1,4.6,4.6c0,2.5-2.1,4.6-4.6,4.6h-0.1c-3.7,0-6.8,3-6.8,6.8
	c0,3.7,3,6.8,6.8,6.8h0.1c2.5,0,4.6,2.1,4.6,4.6c0,2.5-2.1,4.6-4.6,4.6h-19.7H135c-2.5,0-4.6-2.1-4.6-4.6c0-2.5,2.1-4.6,4.6-4.6h1.6
	c3.7,0,6.8-3,6.8-6.8c0-3.7-3-6.8-6.8-6.8h-19.4c-3.7,0-6.8,3-6.8,6.8c0,3.7,3,6.8,6.8,6.8h1.1c2.5,0,4.6,2.1,4.6,4.6
	c0,2.5-2.1,4.6-4.6,4.6h-11.1c-3.7,0-6.8,3-6.8,6.8v0c0,3.7,3,6.8,6.8,6.8h26.2h3.2h38.5c3.7,0,6.8-3,6.8-6.8v0c0-3.7-3-6.8-6.8-6.8
	h-2.1c-2.5,0-4.6-2.1-4.6-4.6c0-2.5,2.1-4.6,4.6-4.6h0.5h1.7h20.1c2.5,0,4.6,2.1,4.6,4.6c0,2.5-2.1,4.6-4.6,4.6h0
	c-3.7,0-6.8,3-6.8,6.8v0c0,3.7,3,6.8,6.8,6.8h26c3.7,0,6.8-3,6.8-6.8v0C228.1,61.9,225.1,58.8,221.3,58.8z"/>
<g>
	<path class="st2" d="M50.2,196.6c-2.5,2.6-6.6,4.1-11.5,4.1c-8.8,0-15.1-3.9-16.2-11h2.5c1.2,5.6,6.2,8.6,13.6,8.6
		c4.2,0,7.7-1.4,9.8-3.5c1.2-1.3,1.8-3,1.7-4.8c-0.1-4.3-3.6-6.4-12.1-7.7c-6-0.9-13.5-1.9-13.6-8.8c0-4.7,4.5-9.5,13.2-9.5
		c7.7,0,12.8,3.5,14.3,9.8h-2.6c-1.4-4.7-5.4-7.4-11.7-7.4c-6.3,0-10.8,3.1-10.7,7.1c0.1,4,3.7,5.3,11.5,6.4c7.3,1.1,14,3,14.3,10
		C52.7,192.4,51.9,194.9,50.2,196.6z"/>
	<path class="st2" d="M62.3,188.2v11.7h-2.5V165h2.5v19.8L82.8,165h3.6l-13.2,12.8l14.9,22.2H85l-13.7-20.3L62.3,188.2z"/>
	<path class="st2" d="M106.7,210.5c7.2,0,12-4.9,12-12.1v-4.3c-2.4,4.1-6.6,6.6-12.1,6.6c-8.5,0-14.7-6.2-14.7-14.6V165h2.5v21.1
		c0,7.1,5.2,12.1,12.1,12.1c7.1,0,12.1-5.1,12.1-12.1V165h2.6v33.4c0,8.6-6,14.6-14.6,14.6"/>
	<path class="st2" d="M180.9,187.5c0,7.7-5.6,13.3-13.3,13.3c-5.6,0-10-3.1-12-7.7c-1.9,4.6-6.3,7.7-12,7.7
		c-7.7,0-13.3-5.6-13.3-13.3V165h2.6v22.5c0,6.2,4.5,10.7,10.7,10.7c6.2,0,10.8-4.5,10.8-10.7V165h2.5v22.5
		c0,6.2,4.5,10.7,10.7,10.7c6.2,0,10.8-4.5,10.8-10.7V165h2.5V187.5z"/>
	<path class="st2" d="M234.9,187.8c0,6,2.8,10,9.4,9.8v2.3c-7.5,0.7-11.9-4.3-11.9-12.1v-20.3h-4.7V165h4.7v-7.5h2.5v7.5h9.4v2.5
		h-9.4V187.8z"/>
	<path class="st2" d="M250.3,182.4c0.1,9.1,6.9,15.8,15.3,15.8c8.2,0,11.9-4.5,13.6-9.2h2.6c-2.4,7.5-8.1,11.7-16.3,11.7
		c-10,0-17.8-8-17.8-18.2s7.8-18.4,17.4-18.4c10.4,0,17.6,9.5,17.4,18.3H250.3z M279.9,179.9c-1.2-7.5-7.4-13.2-14.7-13.2
		c-7.4,0-13.5,5.7-14.6,13.2H279.9z"/>
	<path class="st2" d="M306.1,166.5c-4.6-0.4-8.1,0.9-10.3,3c-2.5,2.2-3.9,5.6-3.9,9.3v21.1h-2.6c0,0,0-17.3,0-20.9
		c0-6.9,3.9-10.4,4.9-11.3c3.1-2.7,7.1-4,11.9-3.5V166.5z"/>
	<path class="st2" d="M222.1,183.2c0-0.2,0-0.5,0-0.7c0-7.9-4.7-14.7-11.3-17.3c-0.2-0.1-0.3-0.1-0.5-0.2c-0.2-0.1-0.5-0.2-0.7-0.2
		c-0.4-0.1-0.8-0.2-1.2-0.3c-0.1,0-0.2-0.1-0.4-0.1c-0.4-0.1-0.9-0.2-1.3-0.2c-0.1,0-0.3,0-0.4,0c-0.5,0-1-0.1-1.6-0.1c0,0,0,0,0,0
		h0c-9.6,0-17.4,8.3-17.4,18.4c0,10,7.8,18.2,17.4,18.2c6.5,0,12.1-3.7,14.9-9.2v8.4h2.5v-15.2C222.1,184.2,222.1,183.7,222.1,183.2
		z M204.7,198.2c-8.2,0-14.9-7.1-14.9-15.7c0-8.7,6.7-15.9,14.9-15.9c7.3,0,13.3,5.6,14.6,12.9c0.2,1,0.3,2,0.3,3
		C219.6,191.1,212.9,198.2,204.7,198.2z"/>
</g>
<path class="st2" d="M41,262h-3.1 M85.4,213.3"/>
</svg>
